<svg width="20" height="20" viewBox="0 0 24 24" fill="none" xmlns="http://www.w3.org/2000/svg">
<path d="M18.2083 3.35043H4.79167C3.7375 3.35043 2.875 4.25043 2.875 5.35043V19.3504C2.875 20.4504 3.7375 21.3504 4.79167 21.3504H18.2083C19.2625 21.3504 20.125 20.4504 20.125 19.3504V5.35043C20.125 4.25043 19.2625 3.35043 18.2083 3.35043ZM18.2083 19.3504H4.79167V5.35043H18.2083V19.3504Z" fill="#21F2FF"/>
<path d="M10.7812 8.07043H5.9895V9.57043H10.7812V8.07043Z" fill="#21F2FF"/>
<path d="M17.2499 16.1004H12.4583V17.6004H17.2499V16.1004Z" fill="#21F2FF"/>
<path d="M17.2499 13.6004H12.4583V15.1004H17.2499V13.6004Z" fill="#21F2FF"/>
<path d="M7.66667 18.3504H9.10417V16.3504H11.0208V14.8504H9.10417V12.8504H7.66667V14.8504H5.75V16.3504H7.66667V18.3504Z" fill="#21F2FF"/>
<path d="M13.5029 11.3004L14.8541 9.89043L16.2054 11.3004L17.2212 10.2404L15.87 8.82043L17.2212 7.41043L16.2054 6.35043L14.8541 7.76043L13.5029 6.35043L12.4871 7.41043L13.8383 8.82043L12.4871 10.2404L13.5029 11.3004Z" fill="#21F2FF"/>
</svg>
