<svg width="20" height="20" viewBox="0 0 24 24" fill="none" xmlns="http://www.w3.org/2000/svg">
<g filter="url(#filter0_di_447_626)">
<path d="M21 16.3504V8.35043C20.9996 7.99971 20.9071 7.65524 20.7315 7.3516C20.556 7.04795 20.3037 6.7958 20 6.62043L13 2.62043C12.696 2.4449 12.3511 2.35249 12 2.35249C11.6489 2.35249 11.304 2.4449 11 2.62043L4 6.62043C3.69626 6.7958 3.44398 7.04795 3.26846 7.3516C3.09294 7.65524 3.00036 7.99971 3 8.35043V16.3504C3.00036 16.7012 3.09294 17.0456 3.26846 17.3493C3.44398 17.6529 3.69626 17.9051 4 18.0804L11 22.0804C11.304 22.256 11.6489 22.3484 12 22.3484C12.3511 22.3484 12.696 22.256 13 22.0804L20 18.0804C20.3037 17.9051 20.556 17.6529 20.7315 17.3493C20.9071 17.0456 20.9996 16.7012 21 16.3504Z" stroke="#21F2FF" stroke-width="2" stroke-linecap="round" stroke-linejoin="round"/>
<path d="M7.5 4.56043L12 7.16043L16.5 4.56043" stroke="#21F2FF" stroke-width="2" stroke-linecap="round" stroke-linejoin="round"/>
<path d="M7.5 20.1404V14.9504L3 12.3504" stroke="#21F2FF" stroke-width="2" stroke-linecap="round" stroke-linejoin="round"/>
<path d="M21 12.3504L16.5 14.9504V20.1404" stroke="#21F2FF" stroke-width="2" stroke-linecap="round" stroke-linejoin="round"/>
<path d="M3.27002 7.31043L12 12.3604L20.73 7.31043" stroke="#21F2FF" stroke-width="2" stroke-linecap="round" stroke-linejoin="round"/>
<path d="M12 22.4304V12.3504" stroke="#21F2FF" stroke-width="2" stroke-linecap="round" stroke-linejoin="round"/>
</g>
<defs>
<filter id="filter0_di_447_626" x="-0.5" y="-0.149567" width="25" height="25" filterUnits="userSpaceOnUse" color-interpolation-filters="sRGB">
<feFlood flood-opacity="0" result="BackgroundImageFix"/>
<feColorMatrix in="SourceAlpha" type="matrix" values="0 0 0 0 0 0 0 0 0 0 0 0 0 0 0 0 0 0 127 0" result="hardAlpha"/>
<feOffset/>
<feGaussianBlur stdDeviation="0.25"/>
<feComposite in2="hardAlpha" operator="out"/>
<feColorMatrix type="matrix" values="0 0 0 0 0.996078 0 0 0 0 0.027451 0 0 0 0 0.027451 0 0 0 1 0"/>
<feBlend mode="normal" in2="BackgroundImageFix" result="effect1_dropShadow_447_626"/>
<feBlend mode="normal" in="SourceGraphic" in2="effect1_dropShadow_447_626" result="shape"/>
<feColorMatrix in="SourceAlpha" type="matrix" values="0 0 0 0 0 0 0 0 0 0 0 0 0 0 0 0 0 0 127 0" result="hardAlpha"/>
<feOffset/>
<feGaussianBlur stdDeviation="0.25"/>
<feComposite in2="hardAlpha" operator="arithmetic" k2="-1" k3="1"/>
<feColorMatrix type="matrix" values="0 0 0 0 1 0 0 0 0 1 0 0 0 0 1 0 0 0 1 0"/>
<feBlend mode="normal" in2="shape" result="effect2_innerShadow_447_626"/>
</filter>
</defs>
</svg>
