<svg width="20" height="20" viewBox="0 0 24 24" fill="none" xmlns="http://www.w3.org/2000/svg">
<path d="M15 10.3504C15 9.80043 15.45 9.35043 16 9.35043C16.55 9.35043 17 9.80043 17 10.3504C17 10.9004 16.55 11.3504 16 11.3504C15.45 11.3504 15 10.9004 15 10.3504ZM8 9.35043H13V7.35043H8V9.35043ZM22 7.85043V14.8204L19.18 15.7604L17.5 21.3504H12V19.3504H10V21.3504H4.5C4.5 21.3504 2 12.8904 2 9.85043C2 6.81043 4.46 4.35043 7.5 4.35043H12.5C13.41 3.14043 14.86 2.35043 16.5 2.35043C17.33 2.35043 18 3.02043 18 3.85043C18 4.06043 17.96 4.25043 17.88 4.43043C17.74 4.77043 17.62 5.16043 17.56 5.58043L19.83 7.85043H22ZM20 9.85043H19L15.5 6.35043C15.5 5.70043 15.59 5.06043 15.76 4.44043C14.79 4.69043 14 5.41043 13.67 6.35043H7.5C5.57 6.35043 4 7.92043 4 9.85043C4 11.7304 5.22 16.5004 6.01 19.3504H8V17.3504H14V19.3504H16.01L17.56 14.2004L20 13.3804V9.85043Z" fill="#21F2FF"/>
</svg>
