<svg width="20" height="20" viewBox="0 0 24 24" fill="none" xmlns="http://www.w3.org/2000/svg">
<path d="M2 3.35043H8C9.06087 3.35043 10.0783 3.77186 10.8284 4.52201C11.5786 5.27215 12 6.28957 12 7.35043V21.3504C12 20.5548 11.6839 19.7917 11.1213 19.2291C10.5587 18.6665 9.79565 18.3504 9 18.3504H2V3.35043Z" stroke="#21F2FF" stroke-width="2" stroke-linecap="round" stroke-linejoin="round"/>
<path d="M22 3.35043H16C14.9391 3.35043 13.9217 3.77186 13.1716 4.52201C12.4214 5.27215 12 6.28957 12 7.35043V21.3504C12 20.5548 12.3161 19.7917 12.8787 19.2291C13.4413 18.6665 14.2044 18.3504 15 18.3504H22V3.35043Z" stroke="#21F2FF" stroke-width="2" stroke-linecap="round" stroke-linejoin="round"/>
</svg>
