<svg width="20" height="20" viewBox="0 0 24 24" fill="none" xmlns="http://www.w3.org/2000/svg">
<path d="M21 11.8504C21.0034 13.1703 20.6951 14.4723 20.1 15.6504C19.3944 17.0622 18.3098 18.2496 16.9674 19.0797C15.6251 19.9098 14.0782 20.3498 12.5 20.3504C11.1801 20.3539 9.87812 20.0455 8.7 19.4504L3 21.3504L4.9 15.6504C4.30493 14.4723 3.99656 13.1703 4 11.8504C4.00061 10.2722 4.44061 8.72528 5.27072 7.38298C6.10083 6.04068 7.28825 4.956 8.7 4.25043C9.87812 3.65536 11.1801 3.34699 12.5 3.35043H13C15.0843 3.46542 17.053 4.34519 18.5291 5.82129C20.0052 7.29739 20.885 9.26608 21 11.3504V11.8504Z" stroke="#21F2FF" stroke-width="2" stroke-linecap="round" stroke-linejoin="round"/>
</svg>
