<svg width="20" height="20" viewBox="0 0 24 24" fill="none" xmlns="http://www.w3.org/2000/svg">
<path d="M17 21.3504V19.3504C17 18.2896 16.5786 17.2722 15.8284 16.522C15.0783 15.7719 14.0609 15.3504 13 15.3504H5C3.93913 15.3504 2.92172 15.7719 2.17157 16.522C1.42143 17.2722 1 18.2896 1 19.3504V21.3504" stroke="#21F2FF" stroke-width="2" stroke-linecap="round" stroke-linejoin="round"/>
<path d="M9 11.3504C11.2091 11.3504 13 9.55957 13 7.35043C13 5.14129 11.2091 3.35043 9 3.35043C6.79086 3.35043 5 5.14129 5 7.35043C5 9.55957 6.79086 11.3504 9 11.3504Z" stroke="#21F2FF" stroke-width="2" stroke-linecap="round" stroke-linejoin="round"/>
<path d="M23 21.3504V19.3504C22.9993 18.4642 22.7044 17.6032 22.1614 16.9028C21.6184 16.2023 20.8581 15.702 20 15.4804" stroke="#21F2FF" stroke-width="2" stroke-linecap="round" stroke-linejoin="round"/>
<path d="M16 3.48044C16.8604 3.70074 17.623 4.20114 18.1676 4.90275C18.7122 5.60436 19.0078 6.46727 19.0078 7.35544C19.0078 8.24361 18.7122 9.10652 18.1676 9.80813C17.623 10.5097 16.8604 11.0101 16 11.2304" stroke="#21F2FF" stroke-width="2" stroke-linecap="round" stroke-linejoin="round"/>
</svg>
