<svg width="20" height="20" viewBox="0 0 23 23" fill="none" xmlns="http://www.w3.org/2000/svg">
<path fill-rule="evenodd" clip-rule="evenodd" d="M12.8583 0.942908C12.7473 1.18648 12.4519 1.81471 12.2016 2.33898C11.6082 3.58219 8.80691 9.4969 8.53614 10.0782C8.4209 10.3257 8.12519 10.952 7.87909 11.4701L7.43154 12.4119L9.59559 12.3938C10.7858 12.3839 11.7596 12.3957 11.7596 12.42C11.7596 12.4658 10.9487 14.3492 8.39896 20.2258C6.54171 24.5062 6.52089 24.5552 6.58354 24.4872C6.61203 24.4564 7.44259 23.384 8.42928 22.1042C9.41597 20.8243 10.4817 19.4445 10.7976 19.0378C11.1135 18.6311 11.4544 18.1895 11.5553 18.0565C11.6562 17.9235 12.2077 17.2091 12.7809 16.469C13.3541 15.7289 14.2398 14.5834 14.7492 13.9235C15.2585 13.2637 15.9893 12.3175 16.3731 11.8208C16.757 11.3242 17.4503 10.4259 17.914 9.82452L18.757 8.73113L16.3372 8.71649L13.9174 8.70191L15.0117 6.5297C15.6136 5.33504 16.5305 3.5171 17.0491 2.48987C17.5678 1.46264 17.9785 0.608386 17.9617 0.591452C17.945 0.574575 16.8352 0.547044 15.4957 0.530391L13.06 0.5L12.8583 0.942908ZM10.4646 1.27609C5.88111 1.9065 2.12424 5.44719 1.17777 10.0285C0.617299 12.7414 1.0809 15.5853 2.4771 17.9987C3.09638 19.0692 4.33462 20.4685 5.30609 21.1957C5.81296 21.575 6.75971 22.1802 6.79332 22.1462C6.87274 22.066 7.4762 20.6185 7.44215 20.5899C7.41877 20.5702 7.14956 20.3883 6.84397 20.1858C4.6667 18.7427 3.18003 16.4348 2.76213 13.8494C2.62556 13.0043 2.61423 11.7535 2.7357 10.9315C3.17525 7.95801 5.01589 5.35108 7.64954 3.972C8.65989 3.44297 9.4899 3.16457 10.5808 2.98885L11.1699 2.89392L11.5724 2.04169L11.9749 1.18951L11.4923 1.19529C11.2269 1.19848 10.7645 1.23482 10.4646 1.27609ZM17.2914 3.53201C16.9508 4.22214 16.9223 4.30496 17.0081 4.35643C17.0605 4.38789 17.2945 4.55582 17.5281 4.72958C19.4186 6.1358 20.7462 8.28289 21.1813 10.6376C21.3275 11.4289 21.3275 13.2105 21.1813 14.0018C20.2441 19.0738 15.4236 22.4914 10.4318 21.623C10.1693 21.5773 9.91379 21.5274 9.86408 21.5121C9.79943 21.4922 9.6252 21.6776 9.25313 22.1623C8.96681 22.5352 8.72532 22.8724 8.71637 22.9117C8.70549 22.9595 8.89738 23.0314 9.29956 23.1303C12.2982 23.8672 15.4454 23.3365 17.9838 21.6658C20.6514 19.91 22.4208 17.1375 22.9052 13.9544C23.0213 13.1916 23.0327 11.6025 22.9277 10.8338C22.583 8.31149 21.4181 6.01603 19.5839 4.24485C19.1395 3.81568 18.2852 3.13889 17.8668 2.88444L17.6702 2.76484L17.2914 3.53201Z" fill="white"/>
</svg>
