<svg width="20" height="20" viewBox="0 0 24 24" fill="none" xmlns="http://www.w3.org/2000/svg">
<path d="M20 2.35043H4C2.89543 2.35043 2 3.24586 2 4.35043V8.35043C2 9.455 2.89543 10.3504 4 10.3504H20C21.1046 10.3504 22 9.455 22 8.35043V4.35043C22 3.24586 21.1046 2.35043 20 2.35043Z" stroke="#7BD784" stroke-width="2" stroke-linecap="round" stroke-linejoin="round"/>
<path d="M20 2.35043H4C2.89543 2.35043 2 3.24586 2 4.35043V8.35043C2 9.455 2.89543 10.3504 4 10.3504H20C21.1046 10.3504 22 9.455 22 8.35043V4.35043C22 3.24586 21.1046 2.35043 20 2.35043Z" stroke="#21F2FF" stroke-width="2" stroke-linecap="round" stroke-linejoin="round"/>
<path d="M20 14.3504H4C2.89543 14.3504 2 15.2459 2 16.3504V20.3504C2 21.455 2.89543 22.3504 4 22.3504H20C21.1046 22.3504 22 21.455 22 20.3504V16.3504C22 15.2459 21.1046 14.3504 20 14.3504Z" stroke="#7BD784" stroke-width="2" stroke-linecap="round" stroke-linejoin="round"/>
<path d="M20 14.3504H4C2.89543 14.3504 2 15.2459 2 16.3504V20.3504C2 21.455 2.89543 22.3504 4 22.3504H20C21.1046 22.3504 22 21.455 22 20.3504V16.3504C22 15.2459 21.1046 14.3504 20 14.3504Z" stroke="#21F2FF" stroke-width="2" stroke-linecap="round" stroke-linejoin="round"/>
<path d="M6 6.35043H6.01" stroke="#7BD784" stroke-width="2" stroke-linecap="round" stroke-linejoin="round"/>
<path d="M6 6.35043H6.01" stroke="#21F2FF" stroke-width="2" stroke-linecap="round" stroke-linejoin="round"/>
<path d="M6 18.3504H6.01" stroke="#7BD784" stroke-width="2" stroke-linecap="round" stroke-linejoin="round"/>
<path d="M6 18.3504H6.01" stroke="#21F2FF" stroke-width="2" stroke-linecap="round" stroke-linejoin="round"/>
</svg>
